<?xml version="1.0" encoding="UTF-8"?>
<svg width="70px" height="70px" viewBox="0 0 70 70" version="1.1" xmlns="http://www.w3.org/2000/svg" xmlns:xlink="http://www.w3.org/1999/xlink">
    <title>Artboard</title>
    <g id="Artboard" stroke="none" stroke-width="1" fill="none" fill-rule="evenodd">
        <path d="M35,0 C54.3299662,0 70,15.6700338 70,35 C70,54.3299662 54.3299662,70 35,70 C15.6700338,70 0,54.3299662 0,35 C0,15.6700338 15.6700338,0 35,0 Z M45.2983648,12.2783948 L17.0465524,33.9906833 C15.8716931,34.8935948 15.6531125,36.5755249 16.5583391,37.7473795 C17.0667575,38.4055489 17.8526031,38.7911235 18.6856101,38.7911235 L31.344034,38.7911235 L21.3841633,55.9908269 C21.0132601,56.6313397 21.2331533,57.4504853 21.8753084,57.8204399 C22.3489657,58.0933205 22.9412319,58.0523404 23.3725779,57.7168407 L53.9657807,33.9215346 C55.135365,33.0118353 55.3441525,31.3286677 54.4321206,30.1620747 C53.9232475,29.5111678 53.1419317,29.1306213 52.3144009,29.1306213 L38.3689905,29.1306213 L47.27545,14.0180191 C47.6512518,13.3803535 47.4376437,12.5595549 46.798343,12.1847142 C46.3260149,11.9077744 45.7323696,11.9448503 45.2983648,12.2783948 Z" id="Combined-Shape" fill="#000000"></path>
    </g>
</svg>